<svg xmlns="http://www.w3.org/2000/svg" viewBox="0 0 91.57 82.26"><defs><style>.cls-1{fill:#fff;}</style></defs><title>자산 5</title><g id="레이어_2" data-name="레이어 2"><g id="Activities"><g id="Cabin"><path class="cls-1" d="M56.69,13.26H71.87c2.77,0,4.94-1.84,4.94-4.19V8.94c0-.18,0-.37,0-.56h5c2.77,0,4.94-1.84,4.94-4.19S84.61,0,81.84,0H66.67c-2.77,0-4.94,1.84-4.94,4.19v.13c0,.18,0,.37,0,.56h-5c-2.77,0-4.94,1.84-4.94,4.19S53.92,13.26,56.69,13.26Zm0-4.88h8.49a1.75,1.75,0,0,0,.05-3.5c0-.18,0-.39,0-.56V4.19c0-.2.5-.69,1.44-.69H81.84c.9,0,1.44.48,1.44.69s-.54.69-1.44.69H73.36a1.75,1.75,0,0,0-.05,3.5c0,.18,0,.39,0,.56v.13c0,.2-.5.69-1.44.69H56.69c-.94,0-1.44-.49-1.44-.69S55.75,8.38,56.69,8.38Z"/><path class="cls-1" d="M90,32.09,46.93,15.27a2.5,2.5,0,0,0-1.81,0L31.45,20.55V14.31a2.25,2.25,0,0,0-2.25-2.25H17.29A2.25,2.25,0,0,0,15,14.31V26a2.23,2.23,0,0,0,.16.82L1.6,32.09a2.5,2.5,0,1,0,1.8,4.66l5.2-2v45A2.49,2.49,0,0,0,11,82.25h70a2.5,2.5,0,0,0,2.5-2.5V34.91l4.72,1.84A2.5,2.5,0,1,0,90,32.09ZM46,20.28l12.35,4.83H33.53ZM19.54,16.56H27v5.73l-7.42,2.87Zm-5.94,21h3.66v4.59H13.6Zm0,8.59h3.66v4.78H13.6ZM34.79,77.26H13.6V72.62H34.79Zm0-8.64H13.6V63.94H34.79Zm16.73,8.64H39.79V61.8H51.52Zm26.92,0H56.52V72.62H78.44Zm0-8.64H56.52V63.94H78.44Zm0-8.68H56.52V59.3A2.5,2.5,0,0,0,54,56.8H37.29a2.5,2.5,0,0,0-2.5,2.5v.64H13.6V54.89H78.44ZM21.14,49.57V38.3H25V49.57Zm7.78,0V38.3h3.9V49.57Zm49.52,1.32H37.33V46.11h41.1Zm0-8.78H37.33V37.52h41.1Zm0-8.59H13.6v-.7l10-3.86a2,2,0,0,0,.78.16H68.6L78.44,33Z"/><circle class="cls-1" cx="47.91" cy="67.33" r="2.19"/></g></g></g></svg>