<svg xmlns="http://www.w3.org/2000/svg" viewBox="0 0 120.24 72.08"><defs><style>.cls-1{fill:#fff;}</style></defs><title>자산 4</title><g id="레이어_2" data-name="레이어 2"><g id="Activities"><g id="Camping"><path class="cls-1" d="M117.74,49.16h-4.08L95.28,19.58l2-3a2.5,2.5,0,1,0-4.14-2.8l-.71,1L91.9,14a2.5,2.5,0,0,0-4.32,2.52l1.69,2.9L76.33,36.52,62.15,10.6l3.71-6.77a2.5,2.5,0,1,0-4.39-2.4l-2.17,4L57.06,1.3a2.5,2.5,0,0,0-4.39,2.4l3.78,6.9L42.61,35.89,31,20.47l1.69-2.9a2.5,2.5,0,0,0-4.32-2.52l-.53.91-.71-1A2.5,2.5,0,1,0,23,17.71l2,3L6.59,50.25H2.5a2.5,2.5,0,1,0,0,5h1l-.33.53A2.5,2.5,0,1,0,7.4,58.41l2-3.17H32l-3.83,7H24a2.5,2.5,0,0,0,0,5h1.42l-.62,1.13a2.5,2.5,0,1,0,4.39,2.4l1.93-3.53H87.44l1.86,3.41a2.5,2.5,0,0,0,4.39-2.4l-.55-1h.09a2.5,2.5,0,1,0,0-5H90.41L86,54.16h24.89l2,3.17a2.5,2.5,0,0,0,4.25-2.64l-.33-.53h1a2.5,2.5,0,1,0,0-5ZM12.47,50.25l14-22.48a2.47,2.47,0,0,0,.71-.75l.71-1.22a1.49,1.49,0,0,0,.88.29l.19,0L40,40.7l-5.22,9.55Zm47.37,12a1.49,1.49,0,0,0,.29-.88v-1a1.5,1.5,0,1,0-3,0v1a1.49,1.49,0,0,0,.29.88H33.89L57.65,18.82a1.49,1.49,0,0,0,2.48-1.12v-.35L84.7,62.25ZM84.56,49.16a2.47,2.47,0,0,0-1.15.29l-4.47-8.18a2.53,2.53,0,0,0,.36-.38L91.31,25l.19,0a1.49,1.49,0,0,0,.88-.29l.71,1.22a2.45,2.45,0,0,0,.71.75l14,22.48Z"/></g></g></g></svg>