<svg xmlns="http://www.w3.org/2000/svg" viewBox="0 0 95.48 38.65"><defs><style>.cls-1{fill:#fff;}</style></defs><title>자산 3</title><g id="레이어_2" data-name="레이어 2"><g id="Activities"><g id="Canoeing"><path class="cls-1" d="M93,26.45c-4,0-6.11,2.63-7.62,4.55s-2.15,2.64-3.69,2.64S79.38,32.79,78,31c-.42-.53-.88-1.12-1.41-1.69a14.48,14.48,0,0,0,6.06-3.4c7.66-8,6.27-23.24,6.21-23.88a2.25,2.25,0,0,0-4.12-1c-.05.08-5.26,7.75-13.78,7.87h-46C16.38,8.76,11.17,1.08,11.12,1A2.25,2.25,0,0,0,7,2c-.06.64-1.45,15.86,6.21,23.88A14.43,14.43,0,0,0,19,29.23c-.57.6-1.06,1.22-1.5,1.78-1.4,1.79-2.14,2.64-3.69,2.64s-2.29-.86-3.69-2.64S6.54,26.45,2.5,26.45a2.5,2.5,0,1,0,0,5c1.54,0,2.29.86,3.69,2.64s3.58,4.56,7.62,4.56,6.11-2.63,7.62-4.56,2.14-2.64,3.69-2.64,2.28.86,3.69,2.64,3.58,4.56,7.62,4.56S42.53,36,44,34.09s2.14-2.64,3.69-2.64,2.29.86,3.69,2.64S55,38.65,59,38.65s6.11-2.63,7.62-4.56,2.14-2.64,3.69-2.64,2.29.86,3.69,2.64,3.58,4.55,7.62,4.55S87.78,36,89.29,34.1s2.15-2.64,3.69-2.64a2.5,2.5,0,1,0,0-5ZM32.12,25.39V20H62.42v5.44Zm0-8.44V13.37H62.42V17ZM71.79,25.5a14.48,14.48,0,0,1-1.62-.09H65.42V20h16a13.7,13.7,0,0,1-2,2.84A11,11,0,0,1,71.79,25.5ZM71,13.37A21,21,0,0,0,84.39,8a33.47,33.47,0,0,1-1.68,9.11,1.49,1.49,0,0,0-.61-.13H65.42V13.37Zm-46.07,0h4.22V17h-16a33.69,33.69,0,0,1-1.64-9A21,21,0,0,0,24.9,13.37ZM14.41,20H29.12v5.44H25.66A14.49,14.49,0,0,1,24,25.5a11,11,0,0,1-7.58-2.69A13.74,13.74,0,0,1,14.41,20Zm22,13.7c-1.54,0-2.28-.86-3.69-2.64-.28-.36-.58-.74-.9-1.12H41c-.33.38-.62.76-.9,1.12C38.71,32.79,38,33.65,36.42,33.65Zm22.62,0c-1.54,0-2.29-.86-3.69-2.64-.28-.36-.58-.73-.9-1.12h9.19c-.33.38-.62.76-.9,1.12C61.33,32.79,60.59,33.65,59,33.65Z"/></g></g></g></svg>