<svg xmlns="http://www.w3.org/2000/svg" viewBox="0 0 104.2 65"><defs><style>.cls-1{fill:#fff;}</style></defs><title>자산 2</title><g id="레이어_2" data-name="레이어 2"><g id="Activities"><g id="Cycling"><path class="cls-1" d="M84.59,25.78a19.58,19.58,0,0,0-3.52.33L77.52,13.9,81.31,4A6.09,6.09,0,0,1,85,5.68c1.45,1.47,2,3.93,1.61,7.31a2,2,0,1,0,4,.45c.52-4.63-.4-8.19-2.74-10.56A10.73,10.73,0,0,0,79.75,0,2,2,0,0,0,78.08,1.3L74,11.82l-32.28.38L40.47,8.65h2.06a2,2,0,1,0,0-4H33.46a2,2,0,0,0,0,4h3.18a2,2,0,0,0,0,1.25L38,13.5,28.75,27.33A19.88,19.88,0,1,0,39,41.88l2-.51a7.85,7.85,0,0,0,5,3.42l2,6.26a2,2,0,0,0,1.91,1.4H52.6a2,2,0,0,0,0-4H51.41l-1.25-3.94A7.87,7.87,0,0,0,55,39.6h4.92a2,2,0,0,0,2-1.7c0-.12,1.91-11.8,14-15.31l1.35,4.64a19.58,19.58,0,1,0,7.36-1.45ZM34.22,44.66A14.66,14.66,0,1,1,26,31.52l-5.8,8.71-.28,0a4.48,4.48,0,0,0-.52,8.94h.27A4.47,4.47,0,0,0,24,45.63L34.13,43.1A14.64,14.64,0,0,1,34.22,44.66Zm-1.06-5.44-9,2.25,5.14-7.72A14.65,14.65,0,0,1,33.15,39.22ZM38,38a19.68,19.68,0,0,0-5.95-8.46l7.57-11.36,4.32,12a7.84,7.84,0,0,0-4.21,6.94c0,.15,0,.3,0,.45Zm4.76-1.19A4.82,4.82,0,0,1,45,33L46.06,36Zm7.38-1.21-1.11-3.07a4.83,4.83,0,0,1,3.1,3.07ZM48.7,41.81a2,2,0,0,0-2,.05,4.82,4.82,0,0,1-2.52-1.29l3.89-1h3.6A4.84,4.84,0,0,1,48.7,41.81Zm9.64-6.21H55.28a7.84,7.84,0,0,0-7.38-6.31L43.18,16.19l30.73-.36.85,2.93A23.72,23.72,0,0,0,58.34,35.6ZM84.59,60a14.6,14.6,0,0,1-6-27.94l2.92,10.05A4.47,4.47,0,1,0,85.4,41L82.48,31a14.6,14.6,0,1,1,2.12,29Z"/></g></g></g></svg>