<svg xmlns="http://www.w3.org/2000/svg" viewBox="0 0 86.31 81.35"><defs><style>.cls-1{fill:#fff;}</style></defs><title>자산 6</title><g id="레이어_2" data-name="레이어 2"><g id="Activities"><g id="Fishing"><path class="cls-1" d="M6.47,76.68c1.37,2,3.25,4.67,7.07,4.67s5.7-2.7,7.07-4.67,1.87-2.53,3-2.53,1.69.69,3,2.53,3.25,4.67,7.07,4.67,5.7-2.7,7.07-4.67,1.87-2.53,3-2.53,1.69.69,3,2.53,3.26,4.67,7.07,4.67,5.7-2.7,7.07-4.67,1.87-2.53,3-2.53,1.69.69,3,2.53,3.26,4.67,7.07,4.67,5.7-2.7,7.07-4.67,1.87-2.53,3-2.53a2.5,2.5,0,0,0,0-5c-3.82,0-5.7,2.7-7.07,4.67s-1.87,2.53-3,2.53-1.69-.69-3-2.53a20.46,20.46,0,0,0-1.66-2.15H70.6A2.5,2.5,0,0,0,73,68.38l-3.14-9.49C81.34,28.14,65.4,13.16,60.69,9.56l.08-7A2.5,2.5,0,0,0,57.52.12L1.75,17.79a2.5,2.5,0,0,0,1.51,4.77L55.74,5.93l0,3.81A41.1,41.1,0,0,0,44.23,32.4l0,0-8,8a2,2,0,0,0,.3,3.08l9.19,6.12a52,52,0,0,0,4,9.52L47.05,68.5a2.49,2.49,0,0,0,.09,1.59,6.73,6.73,0,0,0-3.5-.93c-3.81,0-5.7,2.7-7.07,4.67s-1.87,2.53-3,2.53-1.69-.69-3-2.53-3.25-4.67-7.07-4.67-5.69,2.7-7.07,4.67-1.87,2.53-3,2.53-1.69-.69-3-2.53S7.31,69.15,3.5,69.15a2.5,2.5,0,0,0,0,5C4.6,74.15,5.19,74.84,6.47,76.68ZM54.24,61.33h.59v5.33H52.76Zm3.09,0h1.18v5.33H57.34Zm9.8,5.33H65.25V61.33h.13Zm-4.39,0H61V61.33h1.73Zm-4.34-52.6a27.68,27.68,0,0,1,7.78,10.27c-4.8,6.06-12.46,2.43-15,1A35.39,35.39,0,0,1,58.41,14.07ZM40.72,41.53l3.13-3.11a39.43,39.43,0,0,0,.51,5.53Zm8.9-11.36a21.41,21.41,0,0,0,9.66,2.57A13.17,13.17,0,0,0,68,29.65c1.61,6.6,1.53,15.37-2.56,26.69H53.85C48.4,46,48,37.13,49.62,30.17Zm8.69,41.5a20.31,20.31,0,0,0-1.66,2.15c-1.28,1.84-1.87,2.53-3,2.53s-1.69-.69-3-2.53A19.85,19.85,0,0,0,49,71.61a2.5,2.5,0,0,0,.46.05Z"/></g></g></g></svg>