<svg xmlns="http://www.w3.org/2000/svg" viewBox="0 0 77.7 63.32"><defs><style>.cls-1{fill:#fff;}</style></defs><title>자산 1</title><g id="레이어_2" data-name="레이어 2"><g id="Activities"><g id="Hunting"><path class="cls-1" d="M77.7,31.35a2,2,0,0,0-.55-1.46L71.48,24a2,2,0,1,0-2.89,2.77l2.24,2.33H62.74C61.3,12.82,46.47,0,28.44,0a2.51,2.51,0,0,0-2,4,7,7,0,0,1,.67,6.18,2.5,2.5,0,0,0,4.7,1.7,11.86,11.86,0,0,0,.45-6.64c.83.1,1.65.23,2.45.39V29.07H20.52v-.66a2,2,0,1,0-4,0v.66H15v-.85a2,2,0,0,0-4,0v.85H9.36L3.44,23A2,2,0,1,0,.56,25.75l4.8,5L.53,36a2,2,0,1,0,2.94,2.71l5.15-5.59H11v1.24a2,2,0,0,0,4,0V33.07h1.52V34.5a2,2,0,1,0,4,0V33.07H34.7V57.71c-.84.16-1.69.3-2.55.4A8.83,8.83,0,0,0,30.4,50.8a2.5,2.5,0,0,0-3.91,3.12c1.88,2.35-.05,5.4-.13,5.52a2.5,2.5,0,0,0,2.08,3.89c18.47,0,33.58-13.45,34.38-30.25h7.84l-2,1.75a2,2,0,0,0,2.66,3l5.67-5A2,2,0,0,0,77.7,31.35ZM38.7,6.67c10.33,3.49,17.92,12.1,19,22.4h-19Zm0,50V33.07H57.82C57.19,43.89,49.42,53,38.7,56.65Z"/></g></g></g></svg>