<?xml version="1.0" encoding="utf-8"?>
<!-- Generator: Adobe Illustrator 18.1.1, SVG Export Plug-In . SVG Version: 6.00 Build 0)  -->
<svg version="1.1" id="레이어_2" xmlns="http://www.w3.org/2000/svg" xmlns:xlink="http://www.w3.org/1999/xlink" x="0px"
	 y="0px" viewBox="0 0 300 300" enable-background="new 0 0 300 300" xml:space="preserve">
<rect fill="#F8CB8A" width="300" height="300"/>
<g>
	<path fill="#203049" d="M217.8,237.9l3.3,34.8h49.7l-8.4-64.1c0-14.4-11.6-28.4-25.8-31l-60.3-11.3c-14.2-2.7-37.4-2.7-51.5,0
		l-61.2,11.4c-14.2,2.6-25.8,16.6-25.8,31l-8.4,64.1H79l3.3-34.8l6.3,0.6l-3.2,34.2h129.4l-3.2-34.2L217.8,237.9z"/>
	<rect x="123.3" y="133.6" fill="#E6A585" width="53.4" height="35.3"/>
	<g>
		<path fill="#E6A585" d="M195.6,97.2c0,26-20.4,47.1-45.6,47.1l0,0c-25.2,0-45.6-21.1-45.6-47.1V70.1c0-26,20.4-47.1,45.6-47.1l0,0
			c25.2,0,45.6,21.1,45.6,47.1V97.2z"/>
	</g>
	<g>
		<g>
			<polygon fill="#4E3333" points="106.4,91.6 100.4,91.6 100.4,52 112.8,45.6 			"/>
			<path fill="#4E3333" d="M179.6,18h-28h-3h-28c-11.1,0-20,9-20,20v18.1v13c5.4-14.3,10.7-20.3,22.1-22c2,6.7,13.5,11.9,27.5,11.9
				c13.9,0,25.4-5.2,27.4-11.9c11.4,1.7,16.7,7.6,22.2,22v-13V38C199.6,26.9,190.6,18,179.6,18z"/>
		</g>
		<polygon fill="#4E3333" points="199.6,91.6 193.6,91.6 187.2,45.6 199.6,52 		"/>
	</g>
	<g>
		<g>
			<polygon fill="#C9412D" points="141.9,193.1 131.2,171.1 149.6,162.2 168.8,171.1 157.9,193.7 157.5,193.7 168.8,254.7 
				149.5,275.8 131.2,254.7 141.6,193.1 			"/>
		</g>
	</g>
	<g>
		<polygon fill="#FFFFFF" points="131.9,186.7 106,169.9 114.1,151.2 150,161.6 		"/>
		<g>
			<polygon fill="#FFFFFF" points="168.2,186.7 194,169.9 185.9,151.2 150,161.6 			"/>
		</g>
	</g>
</g>
</svg>
