<?xml version="1.0" encoding="utf-8"?>
<!-- Generator: Adobe Illustrator 18.1.1, SVG Export Plug-In . SVG Version: 6.00 Build 0)  -->
<svg version="1.1" id="레이어_2" xmlns="http://www.w3.org/2000/svg" xmlns:xlink="http://www.w3.org/1999/xlink" x="0px"
	 y="0px" viewBox="0 0 300 300" enable-background="new 0 0 300 300" xml:space="preserve">
<rect fill="#F8CB8A" width="300" height="300"/>
<g id="레이어_3">
	<g>
		<path fill="#A61A03" d="M180.7,186c17.1,0,31-13.9,31-31c0-17.1-13.9-31-31-31c-17.1,0-31,13.9-31,31
			C149.7,172.1,163.6,186,180.7,186z M180.7,134.3c11.4,0,20.7,9.3,20.7,20.7c0,11.4-9.3,20.7-20.7,20.7c-11.4,0-20.7-9.3-20.7-20.7
			C160,143.5,169.3,134.3,180.7,134.3z"/>
		<path fill="#A61A03" d="M274,42.6c0-6.4-5.2-11.6-11.6-11.6H36.6C30.2,31,25,36.2,25,42.6v225.7c0,6.4,5.2,11.6,11.6,11.6h225.7
			c6.4,0,11.6-5.2,11.6-11.6V42.6z M45,258v-22.4l52.3-51.7l57.2,56.9l26-27.6l46.7,44.8H45z M252,258h-9.2l-62.1-60.4l-25.9,26.7
			l-57.5-56.5L45,220.1V104h207V258z M252,93H45V51h207V93z"/>
		<path fill="#A61A03" d="M66.9,82.5c5.7,0,10.3-4.6,10.3-10.3c0-5.7-4.6-10.3-10.3-10.3c-5.7,0-10.3,4.6-10.3,10.3
			C56.6,77.9,61.2,82.5,66.9,82.5z"/>
		<path fill="#A61A03" d="M98,82.5c5.7,0,10.3-4.6,10.3-10.3c0-5.7-4.6-10.3-10.3-10.3c-5.7,0-10.3,4.6-10.3,10.3
			C87.6,77.9,92.2,82.5,98,82.5z"/>
		<path fill="#A61A03" d="M129,82.5c5.7,0,10.3-4.6,10.3-10.3c0-5.7-4.6-10.3-10.3-10.3c-5.7,0-10.3,4.6-10.3,10.3
			C118.7,77.9,123.3,82.5,129,82.5z"/>
	</g>
</g>
</svg>
