<?xml version="1.0" encoding="utf-8"?>
<!-- Generator: Adobe Illustrator 18.1.1, SVG Export Plug-In . SVG Version: 6.00 Build 0)  -->
<svg version="1.1" id="레이어_2" xmlns="http://www.w3.org/2000/svg" xmlns:xlink="http://www.w3.org/1999/xlink" x="0px"
	 y="0px" viewBox="0 0 300 300" enable-background="new 0 0 300 300" xml:space="preserve">
<rect fill="#F8CB8A" width="300" height="300"/>
<g id="레이어_3">
	<g>
		<path fill="#A61A03" d="M55,164h112V84H55V164z M64,93h95v63H64V93z"/>
		<path fill="#A61A03" d="M199.1,173H192V68.7c0-4.4-4.4-7.7-8.8-7.7H39.6c-4.4,0-8.6,3.3-8.6,7.7V173h-7.3c-4.4,0-8.7,3-8.7,7.4
			v23.9c0,4.4,4.3,7.7,8.7,7.7h175.4c4.4,0,7.9-3.3,7.9-7.7v-23.9C207,176,203.5,173,199.1,173z M48,77h126v96H48V77z M192,196H31
			v-16h161V196z"/>
	</g>
	<g>
		<path fill="#A61A03" d="M272,134.3c0-1.8-1.5-3.3-3.3-3.3h-46.4c-1.8,0-3.3,1.5-3.3,3.3v72.4c0,1.8,1.5,3.3,3.3,3.3h46.4
			c1.8,0,3.3-1.5,3.3-3.3V134.3z M265,205h-40v-10h40V205z M265,192h-40v-46h40V192z M265,142h-40v-3h40V142z"/>
		<rect x="242" y="197" fill="#A61A03" width="7" height="5"/>
	</g>
</g>
</svg>
