<?xml version="1.0" encoding="utf-8"?>
<!-- Generator: Adobe Illustrator 18.1.1, SVG Export Plug-In . SVG Version: 6.00 Build 0)  -->
<svg version="1.1" id="레이어_2" xmlns="http://www.w3.org/2000/svg" xmlns:xlink="http://www.w3.org/1999/xlink" x="0px"
	 y="0px" viewBox="0 0 300 300" enable-background="new 0 0 300 300" xml:space="preserve">
<rect fill="#F8CB8A" width="300" height="300"/>
<g>
	<path fill="#A61A03" d="M282,25.8c0-6-4.8-10.8-10.8-10.8H33.8c-6,0-10.8,4.8-10.8,10.8v237.4c0,6,4.8,10.8,10.8,10.8h237.4
		c6,0,10.8-4.8,10.8-10.8V25.8z M218.5,37l32.4,32h-27l-32.4-32H218.5z M89,113H62l32.4-33h27L89,113z M137.5,80h27l-32.4,33h-27
		L137.5,80z M180.7,80h27l-32.4,33h-27L180.7,80z M223.9,80h27l-32.4,33h-27L223.9,80z M175.3,37l32.4,32h-27l-32.4-32H175.3z
		 M132.1,37l32.4,32h-27l-32.4-32H132.1z M89,37l32.4,32h-27L62,37H89z M45,37l33.2,32H45V37z M45,80h33.2L45,112.6V80z M261,253H45
		V123h216V253z M261,113h-26.3L261,85.6V113z M261,64l-26.3-27H261V64z"/>
	<rect x="77" y="167" fill="#A61A03" width="152" height="10"/>
	<rect x="77" y="199" fill="#A61A03" width="152" height="11"/>
</g>
</svg>
