<?xml version="1.0" encoding="utf-8"?>
<!-- Generator: Adobe Illustrator 18.1.1, SVG Export Plug-In . SVG Version: 6.00 Build 0)  -->
<svg version="1.1" xmlns="http://www.w3.org/2000/svg" xmlns:xlink="http://www.w3.org/1999/xlink" x="0px" y="0px"
	 viewBox="0 0 300 300" enable-background="new 0 0 300 300" xml:space="preserve">
<g id="레이어_2">
	<rect fill="#F8CB8A" width="300" height="300"/>
</g>
<g id="레이어_1">
	<g>
		<path fill="#A61A03" d="M273,31.7c0-6.4-5.2-11.7-11.7-11.7H35.7C29.2,20,24,25.2,24,31.7v225.7c0,6.4,5.2,11.7,11.7,11.7h225.7
			c6.4,0,11.7-5.2,11.7-11.7V31.7z M252,248H44V92h208V248z M252,82H44V40h208V82z"/>
		<path fill="#A61A03" d="M65.3,71.5c5.7,0,10.4-4.6,10.4-10.4c0-5.7-4.6-10.4-10.4-10.4c-5.7,0-10.4,4.6-10.4,10.4
			C55,66.8,59.6,71.5,65.3,71.5z"/>
		<path fill="#A61A03" d="M96.4,71.5c5.7,0,10.4-4.6,10.4-10.4c0-5.7-4.6-10.4-10.4-10.4c-5.7,0-10.4,4.6-10.4,10.4
			C86,66.8,90.7,71.5,96.4,71.5z"/>
		<path fill="#A61A03" d="M127.5,71.5c5.7,0,10.4-4.6,10.4-10.4c0-5.7-4.6-10.4-10.4-10.4c-5.7,0-10.4,4.6-10.4,10.4
			C117.1,66.8,121.8,71.5,127.5,71.5z"/>
		<rect x="65" y="196" fill="#A61A03" width="166" height="10"/>
		<rect x="65" y="217" fill="#A61A03" width="166" height="10"/>
		<rect x="65" y="176" fill="#A61A03" width="166" height="9"/>
		<path fill="#A61A03" d="M65,112v53h166v-53H65z M221,155H75v-32h146V155z"/>
	</g>
</g>
</svg>
